<?xml version="1.0" encoding="UTF-8" standalone="no"?>
<svg
   xmlns:dc="http://purl.org/dc/elements/1.1/"
   xmlns:cc="http://creativecommons.org/ns#"
   xmlns:rdf="http://www.w3.org/1999/02/22-rdf-syntax-ns#"
   xmlns:svg="http://www.w3.org/2000/svg"
   xmlns="http://www.w3.org/2000/svg"
   id="svg12"
   height="169.37744mm"
   width="217.5316mm"
   version="1.0">
  <metadata
     id="metadata16">
    <rdf:RDF>
      <cc:Work
         rdf:about="">
        <dc:format>image/svg+xml</dc:format>
        <dc:type
           rdf:resource="http://purl.org/dc/dcmitype/StillImage" />
      </cc:Work>
    </rdf:RDF>
  </metadata>
  <defs
     id="defs6">
    <clipPath
       id="clipWmfPath1"
       clipPathUnits="userSpaceOnUse">
      <path
         id="path2"
         d="M 0,0 L 822,0 L 822,640 L 0,640 z" />
    </clipPath>
    <pattern
       y="0"
       x="0"
       height="6"
       width="6"
       patternUnits="userSpaceOnUse"
       id="WMFhbasepattern" />
  </defs>
  <path
     id="path8"
     d="  M 71.833009,112.8   L 68.63332,118.24   L 65.753601,123.68   L 63.353834,129.28   L 61.114052,135.04   L 59.194239,140.8   L 57.594395,146.56   L 56.314519,152.48   L 55.354613,158.4   L 54.714675,164.32   L 54.234722,170.24   L 54.074737,176.16   L 54.234722,181.92   L 54.714675,187.84   L 55.514597,193.76   L 56.474504,199.52   L 57.914364,205.28   L 59.354223,211.04   L 61.274037,216.64   L 63.353834,222.24   L 65.753601,227.68   L 68.473336,232.96   L 71.353056,238.24   L 74.552744,243.36   L 77.912417,248.32   L 81.592059,253.12   L 85.59167,257.76   L 89.751265,262.24   L 94.230829,266.56   L 98.870378,270.72   L 103.66991,274.56   L 108.9494,278.24   L 114.22888,281.76   L 203.18023,336.32   L 203.18023,336.32   L 268.45387,376.32   L 277.25302,346.72   L 279.01285,341.6   L 281.09264,336.48   L 283.01246,331.2   L 285.25224,326.08   L 287.49202,320.96   L 289.7318,315.68   L 292.13157,310.56   L 294.53134,305.28   L 297.09109,300   L 299.81082,294.88   L 302.53056,289.6   L 305.25029,284.32   L 308.13001,279.04   L 311.16972,273.92   L 314.20942,268.64   L 317.40911,263.36   L 320.6088,258.24   L 323.96847,253.12   L 327.16816,248.16   L 330.52783,243.2   L 333.8875,238.24   L 337.40716,233.44   L 340.92682,228.64   L 344.28649,224   L 347.80615,219.52   L 351.48579,215.04   L 355.00545,210.56   L 358.68509,206.24   L 362.36473,202.08   L 366.04438,197.92   L 369.72402,193.76   L 373.40366,189.76   L 395.96146,168.64   L 330.52783,128.48   L 330.52783,128.48   L 241.73647,74.08   L 236.13702,70.72   L 230.53756,67.84   L 224.77812,65.28   L 219.01868,63.04   L 213.09926,60.96   L 207.17984,59.36   L 201.26041,57.92   L 195.34099,56.8   L 189.42156,56   L 183.34216,55.52   L 177.42273,55.36   L 171.50331,55.36   L 165.4239,55.68   L 159.66446,56.32   L 153.74504,57.28   L 147.9856,58.4   L 142.22616,59.84   L 136.6267,61.6   L 131.02725,63.52   L 125.58778,65.76   L 120.14831,68.32   L 115.0288,71.04   L 109.9093,74.08   L 104.94979,77.44   L 100.15025,80.96   L 95.510705,84.8   L 91.031141,88.8   L 86.871545,93.12   L 82.71195,97.76   L 78.872324,102.56   L 75.192682,107.52   L 71.833009,112.8   L 71.833009,112.8  z    M 27.517322,85.6   L 32.316855,78.08   L 37.436357,71.04   L 42.875827,64.16   L 48.475282,57.6   L 54.394706,51.52   L 60.634099,45.6   L 66.873492,40.16   L 73.592838,35.04   L 80.312184,30.08   L 87.191514,25.76   L 94.390814,21.6   L 101.59011,17.76   L 109.10938,14.4   L 116.62865,11.36   L 124.14792,8.64   L 131.98715,6.4   L 139.82639,4.48   L 147.66563,2.88   L 155.50487,1.76   L 163.50409,0.96   L 171.50331,0.64   L 179.50253,0.64   L 187.50175,1.12   L 195.34099,1.92   L 203.34021,3.04   L 211.17945,4.8   L 219.01868,6.88   L 226.69794,9.28   L 230.53756,10.72   L 234.37719,12.16   L 238.05683,13.76   L 241.89646,15.52   L 245.5761,17.28   L 249.25574,19.2   L 252.93538,21.28   L 256.45504,23.52   L 335.9673,72.16   L 395.32153,108.48   L 485.39276,163.84   L 439.7972,194.08   L 433.87777,198.72   L 428.11833,203.68   L 422.51888,208.8   L 416.91942,214.08   L 411.31997,219.36   L 405.8805,224.96   L 400.60101,230.56   L 395.32153,236.32   L 390.20202,242.4   L 385.24251,248.48   L 380.28299,254.72   L 375.48346,260.96   L 370.68392,267.52   L 366.20436,274.24   L 361.7248,280.96   L 357.40522,287.84   L 353.08564,294.88   L 349.08603,301.92   L 345.2464,309.12   L 341.56676,316.16   L 338.0471,323.36   L 334.84741,330.56   L 331.64772,337.76   L 328.60802,345.12   L 325.88828,352.48   L 323.32853,359.68   L 320.76878,367.04   L 318.529,374.4   L 316.4492,381.76   L 314.52939,389.12   L 312.76956,396.64   L 311.16972,404   L 304.77034,458.24   L 214.6991,403.04   L 155.50487,366.72   L 75.992604,317.92   L 68.953289,313.28   L 62.233943,308.48   L 55.834566,303.2   L 49.755158,297.76   L 44.155703,292   L 38.716232,285.92   L 33.756715,279.68   L 29.117166,273.28   L 24.637602,266.56   L 20.637991,259.52   L 17.118334,252.48   L 13.758661,245.28   L 10.878941,237.76   L 8.3191903,230.24   L 6.0794083,222.4   L 4.3195796,214.56   L 2.8797197,206.72   L 1.7598287,198.72   L 0.95990658,190.56   L 0.63993772,182.4   L 0.79992215,174.24   L 1.119891,166.08   L 2.0797976,157.76   L 3.1996886,149.6   L 4.7995329,141.44   L 6.8793305,133.28   L 9.2790969,125.12   L 12.158817,116.96   L 15.358505,108.96   L 19.038147,101.12   L 23.037758,93.28   L 27.517322,85.6   L 27.517322,85.6  z   "
     clip-path="url(#clipWmfPath1)"
     style="fill:#ffffff;fill-rule:evenodd;fill-opacity:1;stroke:none;" />
  <path
     id="path10"
     d="  M 404.60062,314.56   L 407.32036,310.24   L 410.04009,305.92   L 412.91981,301.76   L 415.63955,297.6   L 418.51927,293.44   L 421.55897,289.28   L 424.43869,285.28   L 427.4784,281.44   L 443.95679,262.24   L 596.42195,355.68   L 611.46049,364.96   L 650.17672,388.64   L 651.4566,389.44   L 652.89646,389.92   L 654.33632,390.4   L 655.77618,390.72   L 657.21604,390.88   L 658.6559,390.88   L 660.09576,390.72   L 661.53562,390.4   L 662.97548,389.92   L 664.25535,389.44   L 665.53523,388.64   L 666.8151,387.84   L 667.93499,386.88   L 669.05489,385.92   L 670.01479,384.64   L 670.9747,383.36   L 671.77462,382.08   L 672.25457,380.64   L 672.73453,379.2   L 673.0545,377.76   L 673.21448,376.16   L 673.21448,374.72   L 673.21448,373.28   L 672.89451,371.84   L 672.57454,370.4   L 671.9346,369.12   L 671.29467,367.84   L 670.49475,366.56   L 669.69482,365.44   L 668.57493,364.32   L 667.45504,363.36   L 666.17517,362.56   L 627.61892,338.72   L 612.4204,329.44   L 466.03464,239.68   L 481.23316,225.44   L 484.91281,222.56   L 488.59245,219.52   L 492.27209,216.64   L 495.95173,213.76   L 499.79136,211.04   L 503.63098,208.32   L 507.47061,205.6   L 511.31024,203.04   L 527.1487,193.6   L 665.8552,278.56   L 665.69521,278.72   L 745.04749,327.36   L 752.0868,331.84   L 758.80615,336.8   L 765.04554,341.92   L 771.12495,347.36   L 776.88439,353.12   L 782.32386,359.04   L 787.28338,365.28   L 792.08291,371.68   L 796.40249,378.4   L 800.4021,385.28   L 804.08174,392.32   L 807.44142,399.52   L 810.48112,406.88   L 813.04087,414.4   L 815.28065,421.92   L 817.20047,429.76   L 818.64033,437.6   L 819.9202,445.44   L 820.72012,453.44   L 821.04009,461.44   L 821.04009,469.44   L 820.72012,477.6   L 819.9202,485.76   L 818.80031,493.76   L 817.20047,501.92   L 815.28065,509.92   L 813.04087,517.92   L 810.32114,525.76   L 807.12145,533.76   L 803.60179,541.44   L 799.60218,549.12   L 795.2826,556.64   L 790.48307,564   L 785.52355,571.04   L 780.24406,577.6   L 774.64461,584   L 768.72518,590.08   L 762.80576,595.68   L 756.40638,601.12   L 750.00701,606.08   L 743.28766,610.88   L 736.40833,615.2   L 729.36902,619.2   L 722.16972,622.88   L 714.81043,626.08   L 707.29116,628.96   L 699.7719,631.52   L 692.09264,633.76   L 684.41339,635.52   L 676.57415,636.96   L 668.73492,638.08   L 660.73569,638.72   L 652.89646,639.04   L 644.89724,639.04   L 636.89801,638.56   L 629.05878,637.6   L 621.21954,636.32   L 613.3803,634.72   L 605.54107,632.64   L 597.86181,630.08   L 590.18256,627.2   L 582.66329,623.84   L 578.98365,621.92   L 575.30401,620   L 571.62437,617.92   L 568.10471,615.84   L 488.75243,567.2   L 488.75243,567.36   L 351.96575,483.52   L 353.56559,460.16   L 354.84547,451.04   L 356.28533,441.76   L 358.04515,432.48   L 359.96497,423.2   L 362.20475,414.08   L 364.7645,404.8   L 367.48424,395.68   L 370.52394,386.4   L 373.88361,377.28   L 377.40327,368.16   L 381.2429,359.04   L 385.40249,350.08   L 389.72207,341.12   L 394.5216,332.16   L 399.32114,323.36   L 404.60062,314.56   L 404.60062,314.56  z "
     clip-path="url(#clipWmfPath1)"
     style="fill:#ffffff;fill-rule:evenodd;fill-opacity:1;stroke:none;" />
</svg>
